<?xml version="1.0" encoding="UTF-8"?>
<svg version="1.1" xmlns="http://www.w3.org/2000/svg" width="400" height="400">
<path d="M0 0 C0.97582031 0.53625 1.95164062 1.0725 2.95703125 1.625 C10.14351144 5.71165755 16.54143463 10.87039238 23 16 C23.90105469 16.69996094 24.80210937 17.39992187 25.73046875 18.12109375 C28.55728821 20.46136941 30.68177743 23.16017736 33 26 C34.1446875 27.1446875 34.1446875 27.1446875 35.3125 28.3125 C64.0970597 57.0970597 78.5510388 96.24949253 79.1875 136.625 C79.15203529 153.9839326 77.98446282 181.01553718 65 194 C59.34024313 198.08098258 53.73508553 197.65831663 47 197 C44.59048499 196.24864586 43.09410285 195.43595624 41 194 C41 193.34 41 192.68 41 192 C40.42894531 191.76667969 39.85789062 191.53335938 39.26953125 191.29296875 C29.77752788 185.88530418 24.88969516 173.65005064 21 164 C20.50306641 162.87863647 20.50306641 162.87863647 19.99609375 161.73461914 C16.07136025 152.20011613 15.43096471 142.15030542 14.36914062 131.98901367 C12.90585386 118.2651992 10.71317239 103.77818682 3 92 C2.4328125 91.09121094 1.865625 90.18242187 1.28125 89.24609375 C0.6934375 88.31925781 0.105625 87.39242187 -0.5 86.4375 C-1.0878125 85.50808594 -1.675625 84.57867187 -2.28125 83.62109375 C-3.93595504 81.02196954 -3.93595504 81.02196954 -5.71875 78.78515625 C-7 77 -7 77 -7 75 C-7.99 74.67 -8.98 74.34 -10 74 C-11.34423339 72.34211215 -12.67618483 70.67423683 -14 69 C-14.9075 68.278125 -15.815 67.55625 -16.75 66.8125 C-17.4925 66.214375 -18.235 65.61625 -19 65 C-19 64.34 -19 63.68 -19 63 C-19.72316406 62.74734375 -20.44632813 62.4946875 -21.19140625 62.234375 C-24.2077192 60.90870755 -26.36260564 59.29721955 -28.9375 57.25 C-48.43651417 42.80240829 -73.77430348 39.63316584 -97.34375 42.42578125 C-106.89568178 44.08920527 -115.34639678 47.78898937 -124 52 C-124.97710937 52.45117188 -125.95421875 52.90234375 -126.9609375 53.3671875 C-148.44338127 64.01391183 -162.81808386 84.82266525 -171.3125 106.625 C-179.01777762 129.54241369 -177.02326198 159.40935973 -166.4453125 181.203125 C-164.523981 184.77813983 -162.47558539 188.2412754 -160.3203125 191.6796875 C-159 194 -159 194 -159 196 C-158.34 196 -157.68 196 -157 196 C-155.87890625 197.3984375 -155.87890625 197.3984375 -154.5625 199.375 C-147.26898776 209.3463235 -137.60043155 215.9387276 -127 222 C-126.24203125 222.47179687 -125.4840625 222.94359375 -124.703125 223.4296875 C-109.15304977 232.84157514 -91.84576202 234.18273784 -74.125 233.9375 C-52.73931521 233.67207152 -29.19135808 237.16805583 -13 252.5 C-8.94237609 256.95445755 -6.34305625 260.83874562 -5.375 266.9375 C-5.7200105 272.88318094 -9.61400634 276.74656154 -13.7578125 280.66015625 C-28.29188895 292.54890916 -51.36562454 296.10007925 -69.6796875 296.203125 C-70.49132355 296.20882507 -71.30295959 296.21452515 -72.13919067 296.22039795 C-73.85189537 296.22979185 -75.56461768 296.23635943 -77.27734375 296.24023438 C-79.83367673 296.24984465 -82.38917075 296.2808817 -84.9453125 296.3125 C-100.57116776 296.41551413 -115.32092576 294.48880347 -130.125 289.3125 C-131.14142578 288.96364746 -132.15785156 288.61479492 -133.20507812 288.25537109 C-147.2880815 283.28975227 -159.7890124 276.273876 -172.26269531 268.13085938 C-173.43138271 267.37012862 -174.60807409 266.62156915 -175.79199219 265.88476562 C-177.228854 264.97506142 -178.61988245 263.99368464 -180 263 C-180 262.34 -180 261.68 -180 261 C-180.84498047 260.63068359 -180.84498047 260.63068359 -181.70703125 260.25390625 C-186.40377632 257.68549881 -190.11785106 253.64130661 -194 250 C-194.75925781 249.29488281 -195.51851562 248.58976562 -196.30078125 247.86328125 C-212.61836268 232.18333177 -226.65842567 210.10177084 -232.42578125 188.09765625 C-233.03404323 185.70428392 -233.03404323 185.70428392 -234.5 182.375 C-244.51352565 156.21400889 -241.46765197 126.34626924 -236 99.6875 C-235.8462793 98.92993408 -235.69255859 98.17236816 -235.53417969 97.3918457 C-234.45808074 92.38954516 -232.90839052 87.74233255 -231 83 C-230.75652832 82.37714111 -230.51305664 81.75428223 -230.26220703 81.11254883 C-227.85648476 74.96252746 -225.39826855 68.8265561 -222.8125 62.75 C-222.53019531 62.08484375 -222.24789062 61.4196875 -221.95703125 60.734375 C-221 59 -221 59 -219.5859375 57.61328125 C-217.47221001 55.46311018 -216.26202799 53.07832652 -214.8125 50.4375 C-211.38821052 44.45582976 -207.45787147 39.2402734 -203 34 C-202.45085937 33.34 -201.90171875 32.68 -201.3359375 32 C-198.39196024 28.49742193 -195.41901458 25.04939138 -192 22 C-191.01 22 -190.02 22 -189 22 C-188.75765625 21.41605469 -188.5153125 20.83210938 -188.265625 20.23046875 C-180.93560165 7.31243377 -158.87063525 -1.49132642 -146 -8 C-145.04609375 -8.495 -144.0921875 -8.99 -143.109375 -9.5 C-99.45843036 -30.92377651 -40.98416199 -23.34425444 0 0 Z " fill="#0340FF" transform="translate(276,60)"/>
<path d="M0 0 C3.06339085 2.31824172 3.48337003 5.46610486 4.3984375 9.03125 C6.13219412 15.21560634 8.27074548 20.33707294 11.88671875 25.7109375 C13.0234375 27.53125 13.0234375 27.53125 13.0234375 29.53125 C13.6834375 29.53125 14.3434375 29.53125 15.0234375 29.53125 C15.6421875 30.35625 16.2609375 31.18125 16.8984375 32.03125 C24.93362824 41.73282973 35.5357395 45.02691138 47.27685547 48.18530273 C48.24768066 48.45028564 49.21850586 48.71526855 50.21875 48.98828125 C51.09547363 49.21491455 51.97219727 49.44154785 52.87548828 49.67504883 C55.0234375 50.53125 55.0234375 50.53125 57.0234375 53.53125 C51.70524864 56.35241113 46.48650597 58.74254731 40.7734375 60.65625 C27.52019674 65.69467211 18.06283229 74.76616556 12.0234375 87.53125 C9.2339818 94.36205567 7.53379683 101.32799783 6.0234375 108.53125 C5.6934375 109.19125 5.3634375 109.85125 5.0234375 110.53125 C3.3734375 110.53125 1.7234375 110.53125 0.0234375 110.53125 C-0.21890625 109.91378906 -0.46125 109.29632813 -0.7109375 108.66015625 C-2.9968904 102.88372911 -5.38896878 97.17877598 -7.9765625 91.53125 C-8.26015625 90.86351562 -8.54375 90.19578125 -8.8359375 89.5078125 C-13.64963135 78.82479019 -22.34324835 71.25136937 -32.9765625 66.53125 C-40.18919797 63.82924327 -47.57122651 61.63708945 -54.9765625 59.53125 C-54.9765625 58.21125 -54.9765625 56.89125 -54.9765625 55.53125 C-54.05544678 55.18513672 -54.05544678 55.18513672 -53.11572266 54.83203125 C-36.72285659 48.88951776 -36.72285659 48.88951776 -22.9765625 38.53125 C-22.34105469 37.91894531 -21.70554687 37.30664062 -21.05078125 36.67578125 C-13.87412146 29.22250503 -10.06550544 19.93946808 -7.625 10.01953125 C-6.74140495 6.62886832 -5.5432426 3.6646102 -3.9765625 0.53125 C-1.9765625 -0.46875 -1.9765625 -0.46875 0 0 Z " fill="#02DEB3" transform="translate(287.9765625,226.46875)"/>
<path d="M0 0 C0.78375 0.04125 1.5675 0.0825 2.375 0.125 C2.67792969 1.06601562 2.98085938 2.00703125 3.29296875 2.9765625 C6.56140355 12.6913564 8.70688173 18.393536 18.1875 23.3125 C22.8407487 25.50395581 27.51589707 27.44300283 32.375 29.125 C32.375 30.445 32.375 31.765 32.375 33.125 C31.43398438 33.50011719 30.49296875 33.87523437 29.5234375 34.26171875 C17.12360757 39.23027061 17.12360757 39.23027061 9.3046875 49.66015625 C7.7298477 53.83546681 6.61074598 58.14582703 5.5 62.46484375 C4.375 65.125 4.375 65.125 2.25 66.00390625 C1.321875 66.06384766 1.321875 66.06384766 0.375 66.125 C-2.8958579 59.93234808 -5.62886732 53.8436905 -7.625 47.125 C-8.285 47.125 -8.945 47.125 -9.625 47.125 C-10.19476563 46.35542969 -10.76453125 45.58585937 -11.3515625 44.79296875 C-14.04700451 41.62976103 -16.10797249 40.80288494 -20 39.4375 C-21.10085938 39.04175781 -22.20171875 38.64601563 -23.3359375 38.23828125 C-26.42929165 37.19124333 -29.52450211 36.15069341 -32.625 35.125 C-32.625 34.135 -32.625 33.145 -32.625 32.125 C-31.7071875 31.77308594 -30.789375 31.42117188 -29.84375 31.05859375 C-20.19631514 27.23275082 -11.80498438 23.23312283 -7.359375 13.25 C-6.31220641 10.21989514 -5.6562388 7.16511295 -5.1171875 4.0078125 C-4.29113196 0.84782224 -3.20756567 0.15274122 0 0 Z " fill="#05DEB4" transform="translate(330.625,295.875)"/>
<path d="M0 0 C0.97582031 0.53625 1.95164062 1.0725 2.95703125 1.625 C10.14351144 5.71165755 16.54143463 10.87039238 23 16 C23.90105469 16.69996094 24.80210937 17.39992187 25.73046875 18.12109375 C28.55728821 20.46136941 30.68177743 23.16017736 33 26 C34.1446875 27.1446875 34.1446875 27.1446875 35.3125 28.3125 C64.0970597 57.0970597 78.5510388 96.24949253 79.1875 136.625 C79.15203529 153.9839326 77.98446282 181.01553718 65 194 C59.34024313 198.08098258 53.73508553 197.65831663 47 197 C44.59048499 196.24864586 43.09410285 195.43595624 41 194 C41 193.34 41 192.68 41 192 C40.42894531 191.76667969 39.85789062 191.53335938 39.26953125 191.29296875 C29.77752788 185.88530418 24.88969516 173.65005064 21 164 C20.66871094 163.25242432 20.33742188 162.50484863 19.99609375 161.73461914 C16.07136025 152.20011613 15.43096471 142.15030542 14.36914062 131.98901367 C12.90585386 118.2651992 10.71317239 103.77818682 3 92 C2.4328125 91.09121094 1.865625 90.18242187 1.28125 89.24609375 C0.6934375 88.31925781 0.105625 87.39242187 -0.5 86.4375 C-1.0878125 85.50808594 -1.675625 84.57867187 -2.28125 83.62109375 C-3.93595504 81.02196954 -3.93595504 81.02196954 -5.71875 78.78515625 C-7 77 -7 77 -7 75 C-7.99 74.67 -8.98 74.34 -10 74 C-11.34423339 72.34211215 -12.67618483 70.67423683 -14 69 C-14.9075 68.278125 -15.815 67.55625 -16.75 66.8125 C-17.4925 66.214375 -18.235 65.61625 -19 65 C-19 64.34 -19 63.68 -19 63 C-19.70511719 62.75507812 -20.41023438 62.51015625 -21.13671875 62.2578125 C-24.39763037 60.82532472 -26.96134115 59.00478131 -29.8125 56.875 C-30.78832031 56.15054688 -31.76414062 55.42609375 -32.76953125 54.6796875 C-33.50558594 54.12539062 -34.24164063 53.57109375 -35 53 C-34.34 52.67 -33.68 52.34 -33 52 C-10.87708488 62.62534274 4.99093015 85.47085176 13 108 C16.11767874 117.71695857 17.3489777 127.47983399 18.21875 137.61035156 C19.89479864 155.92615432 25.9859362 177.21865477 40 190 C45.06254146 193.7777298 49.62408358 195.77935892 56 195.34765625 C60.60157663 194.54777281 62.5809875 192.49055121 65.5625 189 C75.26461694 174.30996087 75.5513506 154.59425537 75.375 137.5625 C75.36802094 136.35234222 75.36802094 136.35234222 75.36090088 135.11773682 C75.11840174 99.18789149 64.08809876 64.35102847 40 37 C38.90558594 35.74316406 38.90558594 35.74316406 37.7890625 34.4609375 C35.5588319 31.94146198 33.29231634 29.46302074 31 27 C30.37609375 26.32195312 29.7521875 25.64390625 29.109375 24.9453125 C14.56605726 9.72982461 -4.49550563 -1.44023621 -24 -9 C-25.13953125 -9.46019531 -26.2790625 -9.92039062 -27.453125 -10.39453125 C-45.83635805 -17.21611213 -64.96479312 -18.38307241 -84.375 -18.5 C-85.20764374 -18.51044342 -86.04028748 -18.52088684 -86.89816284 -18.53164673 C-103.68249164 -18.69607123 -119.1201255 -15.70088632 -134.8984375 -10.05078125 C-137.60592223 -9.13350997 -140.18709477 -8.47935276 -143 -8 C-140.32143041 -11.45104097 -136.70949042 -12.31385207 -132.6875 -13.5 C-131.98197998 -13.71430664 -131.27645996 -13.92861328 -130.54956055 -14.14941406 C-123.77648799 -16.15883216 -116.93596874 -17.65813938 -110 -19 C-108.79537109 -19.26876953 -108.79537109 -19.26876953 -107.56640625 -19.54296875 C-71.00125506 -26.05457102 -31.89908577 -18.1694669 0 0 Z " fill="#E4EBFF" transform="translate(276,60)"/>
<path d="M0 0 C3.06339085 2.31824172 3.48337003 5.46610486 4.3984375 9.03125 C6.13219412 15.21560634 8.27074548 20.33707294 11.88671875 25.7109375 C13.0234375 27.53125 13.0234375 27.53125 13.0234375 29.53125 C13.6834375 29.53125 14.3434375 29.53125 15.0234375 29.53125 C15.6421875 30.35625 16.2609375 31.18125 16.8984375 32.03125 C24.93362824 41.73282973 35.5357395 45.02691138 47.27685547 48.18530273 C48.24768066 48.45028564 49.21850586 48.71526855 50.21875 48.98828125 C51.09547363 49.21491455 51.97219727 49.44154785 52.87548828 49.67504883 C55.0234375 50.53125 55.0234375 50.53125 57.0234375 53.53125 C51.70524864 56.35241113 46.48650597 58.74254731 40.7734375 60.65625 C27.52019674 65.69467211 18.06283229 74.76616556 12.0234375 87.53125 C9.2339818 94.36205567 7.53379683 101.32799783 6.0234375 108.53125 C5.6934375 109.19125 5.3634375 109.85125 5.0234375 110.53125 C3.3734375 110.53125 1.7234375 110.53125 0.0234375 110.53125 C-0.21890625 109.91378906 -0.46125 109.29632813 -0.7109375 108.66015625 C-2.9968904 102.88372911 -5.38896878 97.17877598 -7.9765625 91.53125 C-8.26015625 90.86351562 -8.54375 90.19578125 -8.8359375 89.5078125 C-13.64963135 78.82479019 -22.34324835 71.25136937 -32.9765625 66.53125 C-40.18919797 63.82924327 -47.57122651 61.63708945 -54.9765625 59.53125 C-54.9765625 58.21125 -54.9765625 56.89125 -54.9765625 55.53125 C-54.05544678 55.18513672 -54.05544678 55.18513672 -53.11572266 54.83203125 C-36.72285659 48.88951776 -36.72285659 48.88951776 -22.9765625 38.53125 C-22.34105469 37.91894531 -21.70554687 37.30664062 -21.05078125 36.67578125 C-13.87412146 29.22250503 -10.06550544 19.93946808 -7.625 10.01953125 C-6.74140495 6.62886832 -5.5432426 3.6646102 -3.9765625 0.53125 C-1.9765625 -0.46875 -1.9765625 -0.46875 0 0 Z M-2.9765625 1.53125 C-3.29294678 2.49780518 -3.29294678 2.49780518 -3.61572266 3.48388672 C-4.59856421 6.46227525 -5.59992924 9.43413094 -6.6015625 12.40625 C-6.93285156 13.41945312 -7.26414062 14.43265625 -7.60546875 15.4765625 C-12.22852464 29.08404776 -19.24179874 40.34087319 -31.9765625 47.53125 C-38.86306818 50.78848957 -45.91543128 53.67697822 -52.9765625 56.53125 C-52.9765625 57.19125 -52.9765625 57.85125 -52.9765625 58.53125 C-52.3374292 58.73693604 -51.6982959 58.94262207 -51.03979492 59.15454102 C-27.02667012 66.96405695 -27.02667012 66.96405695 -18.9765625 73.53125 C-18.33203125 74.04945313 -17.6875 74.56765625 -17.0234375 75.1015625 C-8.93184543 82.38399536 -4.61156022 92.69418991 -0.92944336 102.71875 C0.20436108 106.30986076 0.20436108 106.30986076 3.0234375 108.53125 C3.22912354 107.8921167 3.43480957 107.2529834 3.64672852 106.59448242 C9.96222779 87.17524139 15.67424229 71.61589893 34.8984375 61.78125 C41.18542466 58.82388433 47.5672065 56.09718796 54.0234375 53.53125 C51.41564706 51.79272304 49.62301027 50.95592371 46.70703125 50.015625 C30.12990729 44.53697356 16.51072861 38.44844466 7.5 22.56640625 C5.21352499 17.86642985 3.26130572 13.03233569 1.38232422 8.15625 C0.08878883 4.12208775 0.08878883 4.12208775 -2.9765625 1.53125 Z " fill="#E9FCF8" transform="translate(287.9765625,226.46875)"/>
<path d="M0 0 C-0.99 0.33 -1.98 0.66 -3 1 C-4.76977442 0.09776206 -6.53636911 -0.81110676 -8.2890625 -1.74609375 C-11.79647107 -3.36839656 -15.3779153 -4.53561766 -19.0625 -5.6875 C-19.73498779 -5.90164551 -20.40747559 -6.11579102 -21.1003418 -6.33642578 C-43.86154204 -13.31975454 -68.07703029 -9.18152158 -89 1 C-89.97710937 1.45117188 -90.95421875 1.90234375 -91.9609375 2.3671875 C-113.44338127 13.01391183 -127.81808386 33.82266525 -136.3125 55.625 C-144.01777762 78.54241369 -142.02326198 108.40935973 -131.4453125 130.203125 C-129.523981 133.77813983 -127.47558539 137.2412754 -125.3203125 140.6796875 C-124 143 -124 143 -124 145 C-123.34 145 -122.68 145 -122 145 C-120.87890625 146.3984375 -120.87890625 146.3984375 -119.5625 148.375 C-112.26898776 158.3463235 -102.60043155 164.9387276 -92 171 C-91.24203125 171.47179687 -90.4840625 171.94359375 -89.703125 172.4296875 C-82.94598599 176.5195348 -75.50052048 178.67770446 -68 181 C-68 181.33 -68 181.66 -68 182 C-84.086258 181.07194665 -100.25671945 170.48160578 -112 160 C-112.83144531 159.26265625 -113.66289063 158.5253125 -114.51953125 157.765625 C-130.69280424 142.56125777 -142.22190901 118.63651231 -143.10620117 96.31982422 C-143.71681156 66.51334857 -138.34380598 42.58863974 -118 20 C-117.31421875 19.23171875 -116.6284375 18.4634375 -115.921875 17.671875 C-86.87671793 -13.09447656 -36.73727974 -22.6732764 0 0 Z " fill="#DEE6FF" transform="translate(241,111)"/>
<path d="M0 0 C0.99 0.33 1.98 0.66 3 1 C2.42894531 1.52464844 1.85789063 2.04929687 1.26953125 2.58984375 C-21.47770612 24.3244855 -36.594464 53.16909051 -42.59033203 83.9934082 C-42.86758274 85.35140794 -43.18236328 86.70219092 -43.53076172 88.04370117 C-45.4743099 96.07189016 -45.37217253 104.16112236 -45.37060547 112.37329102 C-45.37493789 114.90126067 -45.41123112 117.42742058 -45.44921875 119.95507812 C-45.53013871 131.74562606 -43.90614645 142.58887746 -41 154 C-40.81021072 154.75059189 -40.62042145 155.50118378 -40.42488098 156.27452087 C-34.85875182 178.0327553 -24.77399124 198.99273101 -10 216 C-9.31421875 216.80695313 -8.6284375 217.61390625 -7.921875 218.4453125 C4.75656559 232.99359505 19.63200133 243.95475667 36 254 C35.34 254.33 34.68 254.66 34 255 C31.33707992 253.51031713 28.80415692 251.97178653 26.25 250.3125 C25.54617187 249.86455078 24.84234375 249.41660156 24.1171875 248.95507812 C22.72835832 248.06834425 21.34349104 247.17537095 19.96289062 246.27587891 C18.69831663 245.45390581 17.42660456 244.64276075 16.14648438 243.84521484 C14.73018633 242.94858667 13.35924592 241.98096522 12 241 C12 240.34 12 239.68 12 239 C11.15501953 238.63068359 11.15501953 238.63068359 10.29296875 238.25390625 C5.59622368 235.68549881 1.88214894 231.64130661 -2 228 C-2.75925781 227.29488281 -3.51851562 226.58976563 -4.30078125 225.86328125 C-20.61836268 210.18333177 -34.65842567 188.10177084 -40.42578125 166.09765625 C-41.03404323 163.70428392 -41.03404323 163.70428392 -42.5 160.375 C-52.51352565 134.21400889 -49.46765197 104.34626924 -44 77.6875 C-43.8462793 76.92993408 -43.69255859 76.17236816 -43.53417969 75.3918457 C-42.45808074 70.38954516 -40.90839052 65.74233255 -39 61 C-38.75652832 60.37714111 -38.51305664 59.75428223 -38.26220703 59.11254883 C-35.85648476 52.96252746 -33.39826855 46.8265561 -30.8125 40.75 C-30.38904297 39.75226563 -30.38904297 39.75226563 -29.95703125 38.734375 C-29 37 -29 37 -27.5859375 35.61328125 C-25.47221001 33.46311018 -24.26202799 31.07832652 -22.8125 28.4375 C-19.38821052 22.45582976 -15.45787147 17.2402734 -11 12 C-10.45085937 11.34 -9.90171875 10.68 -9.3359375 10 C-6.38255659 6.48623399 -3.2935154 3.1966473 0 0 Z " fill="#E8EEFF" transform="translate(84,82)"/>
<path d="M0 0 C0.78375 0.04125 1.5675 0.0825 2.375 0.125 C2.67792969 1.06601562 2.98085938 2.00703125 3.29296875 2.9765625 C6.56140355 12.6913564 8.70688173 18.393536 18.1875 23.3125 C22.8407487 25.50395581 27.51589707 27.44300283 32.375 29.125 C32.375 30.445 32.375 31.765 32.375 33.125 C31.43398438 33.50011719 30.49296875 33.87523437 29.5234375 34.26171875 C17.12360757 39.23027061 17.12360757 39.23027061 9.3046875 49.66015625 C7.7298477 53.83546681 6.61074598 58.14582703 5.5 62.46484375 C4.375 65.125 4.375 65.125 2.25 66.00390625 C1.321875 66.06384766 1.321875 66.06384766 0.375 66.125 C-2.8958579 59.93234808 -5.62886732 53.8436905 -7.625 47.125 C-8.285 47.125 -8.945 47.125 -9.625 47.125 C-10.19476563 46.35542969 -10.76453125 45.58585937 -11.3515625 44.79296875 C-14.04700451 41.62976103 -16.10797249 40.80288494 -20 39.4375 C-21.10085938 39.04175781 -22.20171875 38.64601563 -23.3359375 38.23828125 C-26.42929165 37.19124333 -29.52450211 36.15069341 -32.625 35.125 C-32.625 34.135 -32.625 33.145 -32.625 32.125 C-31.7071875 31.77308594 -30.789375 31.42117188 -29.84375 31.05859375 C-20.19631514 27.23275082 -11.80498438 23.23312283 -7.359375 13.25 C-6.31220641 10.21989514 -5.6562388 7.16511295 -5.1171875 4.0078125 C-4.29113196 0.84782224 -3.20756567 0.15274122 0 0 Z M-1.625 2.125 C-1.77195312 2.73085938 -1.91890625 3.33671875 -2.0703125 3.9609375 C-4.66909475 13.66903212 -8.3287026 21.52310411 -17.16796875 26.80859375 C-21.27660849 29.00988404 -25.4091835 31.13590913 -29.625 33.125 C-26.92427791 35.33302279 -24.73662588 36.54872481 -21.375 37.4375 C-14.18180241 39.70092791 -9.01031083 44.05503511 -4.625 50.125 C-3.47989076 52.36531693 -2.39684754 54.63834304 -1.375 56.9375 C-0.85421875 58.09894531 -0.3334375 59.26039063 0.203125 60.45703125 C0.58984375 61.33746094 0.9765625 62.21789062 1.375 63.125 C3.41657795 60.06263308 4.37107795 57.40604269 5.5625 53.9375 C9.57599318 43.49777785 14.61573473 38.95196745 24.703125 34.25390625 C27.375 33.125 27.375 33.125 30.375 32.125 C30.375 31.465 30.375 30.805 30.375 30.125 C29.48039062 29.86847656 28.58578125 29.61195313 27.6640625 29.34765625 C16.60338293 25.84550078 8.73360217 21.11338046 3.19897461 10.49584961 C1.84446875 7.73630964 0.58837047 4.94950146 -0.625 2.125 C-0.955 2.125 -1.285 2.125 -1.625 2.125 Z " fill="#EBFCF9" transform="translate(330.625,295.875)"/>
<path d="M0 0 C1 2 1 2 0.57421875 4.48046875 C-3.46048968 29.21021223 1.46520448 54.59797738 14.6796875 75.6796875 C16 78 16 78 16 80 C16.66 80 17.32 80 18 80 C19.12109375 81.3984375 19.12109375 81.3984375 20.4375 83.375 C27.73101224 93.3463235 37.39956845 99.9387276 48 106 C48.75796875 106.47179687 49.5159375 106.94359375 50.296875 107.4296875 C57.05401401 111.5195348 64.49947952 113.67770446 72 116 C72 116.33 72 116.66 72 117 C55.913742 116.07194665 39.74328055 105.48160578 28 95 C27.16855469 94.26265625 26.33710937 93.5253125 25.48046875 92.765625 C9.23443175 77.49285289 -2.12497534 53.63478485 -3.12231445 31.25537109 C-3.20625079 28.0444892 -3.23484947 24.83691173 -3.25 21.625 C-3.270625 20.53960937 -3.29125 19.45421875 -3.3125 18.3359375 C-3.34527826 11.55083734 -2.52321139 6.30802847 0 0 Z " fill="#F4F7FF" transform="translate(101,176)"/>
<path d="M0 0 C3.45772681 1.1525756 3.58079452 1.53560593 5.1640625 4.61328125 C5.55907959 5.36077637 5.95409668 6.10827148 6.36108398 6.87841797 C6.77817627 7.68166504 7.19526855 8.48491211 7.625 9.3125 C21.84990116 35.72460408 43.70690446 54.49204107 69 70 C68.01 70.495 68.01 70.495 67 71 C64.33707992 69.51031713 61.80415692 67.97178653 59.25 66.3125 C58.54617187 65.86455078 57.84234375 65.41660156 57.1171875 64.95507812 C55.72835832 64.06834425 54.34349104 63.17537095 52.96289062 62.27587891 C51.69831663 61.45390581 50.42660456 60.64276075 49.14648438 59.84521484 C47.73018633 58.94858667 46.35924592 57.98096522 45 57 C45 56.34 45 55.68 45 55 C44.43667969 54.75378906 43.87335938 54.50757813 43.29296875 54.25390625 C38.59622368 51.68549881 34.88214894 47.64130661 31 44 C29.86111328 42.94232422 29.86111328 42.94232422 28.69921875 41.86328125 C16.5250027 30.16478945 6.38411129 15.65007846 0 0 Z " fill="#EBF0FF" transform="translate(51,266)"/>
<path d="M0 0 C0.99 0.33 1.98 0.66 3 1 C4.1875 4.0625 4.1875 4.0625 5 7 C5.66 7 6.32 7 7 7 C8.12109375 8.3984375 8.12109375 8.3984375 9.4375 10.375 C16.73101224 20.3463235 26.39956845 26.9387276 37 33 C37.75796875 33.47179687 38.5159375 33.94359375 39.296875 34.4296875 C46.05401401 38.5195348 53.49947952 40.67770446 61 43 C61 43.33 61 43.66 61 44 C40.2989317 42.8057076 20.29314054 26.78001936 7 12 C0 3.05903399 0 3.05903399 0 0 Z " fill="#E7EDFF" transform="translate(112,249)"/>
<path d="M0 0 C-0.84425537 0.42128174 -0.84425537 0.42128174 -1.70556641 0.85107422 C-17.57770689 8.82434226 -31.29543209 17.69531034 -45 29 C-45 26 -45 26 -43.0859375 24.0546875 C-32.93520171 15.89314489 -22.25010811 9.0796041 -10.8125 2.875 C-10.08144043 2.47216797 -9.35038086 2.06933594 -8.59716797 1.65429688 C-3.3571308 -1.1190436 -3.3571308 -1.1190436 0 0 Z " fill="#E8EEFF" transform="translate(133,53)"/>
<path d="M0 0 C1 3 1 3 -0.51171875 6.40625 C-1.22917768 7.77495122 -1.95493702 9.13932303 -2.6875 10.5 C-5.99990022 16.8680697 -8.72095473 23.18488394 -11 30 C-11.57658058 31.56500443 -12.1593148 33.12776444 -12.75 34.6875 C-13.1625 35.780625 -13.575 36.87375 -14 38 C-15.41859597 33.49885353 -14.09857861 30.07915233 -12.625 25.75 C-12.36187012 24.96383301 -12.09874023 24.17766602 -11.82763672 23.36767578 C-8.88316885 15.00967233 -4.61724126 7.53123352 0 0 Z " fill="#D9E3FF" transform="translate(114,142)"/>
<path d="M0 0 C0.99 0.33 1.98 0.66 3 1 C-1.66666667 5.66666667 -6.33333333 10.33333333 -11 15 C-10.65975871 11.95353186 -10.33788887 10.36388032 -8.22265625 8.0859375 C-7.50980469 7.52132812 -6.79695313 6.95671875 -6.0625 6.375 C-3.44850856 4.27811394 -1.88922484 2.83383726 0 0 Z " fill="#F4F7FF" transform="translate(84,82)"/>
<path d="M0 0 C1.57554035 2.88628401 2.46276373 5.53342384 3.125 8.75 C3.29257812 9.54921875 3.46015625 10.3484375 3.6328125 11.171875 C3.81457031 12.07679688 3.81457031 12.07679688 4 13 C3.34 13 2.68 13 2 13 C-0.44038726 8.11922548 -1.46845421 5.47332932 0 0 Z " fill="#D8E2FF" transform="translate(42,236)"/>
<path d="M0 0 C0.33 0 0.66 0 1 0 C1.50471197 1.76949612 2.00360685 3.54065223 2.5 5.3125 C2.7784375 6.29863281 3.056875 7.28476563 3.34375 8.30078125 C4 11 4 11 4 14 C3.34 14 2.68 14 2 14 C1.46658816 12.42085985 0.94874237 10.83645613 0.4375 9.25 C0.14746094 8.36828125 -0.14257812 7.4865625 -0.44140625 6.578125 C-1.01697435 3.92165684 -0.89248371 2.52968894 0 0 Z " fill="#D3DEFF" transform="translate(295,210)"/>
<path d="M0 0 C0.99 0 1.98 0 3 0 C3.99 3.96 4.98 7.92 6 12 C2.50071836 9.66714557 2.3670902 8.79204931 1.3125 4.875 C1.06113281 3.96492187 0.80976563 3.05484375 0.55078125 2.1171875 C0.27814453 1.06917969 0.27814453 1.06917969 0 0 Z " fill="#DBE4FF" transform="translate(285,165)"/>
<path d="M0 0 C0.99 0.99 1.98 1.98 3 3 C-3.625 7 -3.625 7 -7 7 C-7 6.34 -7 5.68 -7 5 C-4.69 4.34 -2.38 3.68 0 3 C0 2.01 0 1.02 0 0 Z " fill="#ECFCF9" transform="translate(342,277)"/>
<path d="M0 0 C2 3 2 3 1.875 6.0625 C1.58625 7.031875 1.2975 8.00125 1 9 C-0.98 9.99 -0.98 9.99 -3 11 C-2.01 7.37 -1.02 3.74 0 0 Z " fill="#D7FAF3" transform="translate(294,323)"/>
<path d="M0 0 C0.99 0 1.98 0 3 0 C3 0.66 3 1.32 3 2 C2.01 2 1.02 2 0 2 C0 1.34 0 0.68 0 0 Z " fill="#FFFFFF" transform="translate(286,222)"/>
<path d="" fill="#FFFFFF" transform="translate(0,0)"/>
</svg>
