<?xml version="1.0" encoding="UTF-8"?>
<svg version="1.1" xmlns="http://www.w3.org/2000/svg" width="1208" height="1208">
<path d="M0 0 C1.30917892 -0.00701431 2.61835785 -0.01402863 3.96720886 -0.02125549 C8.17085255 -0.04065589 12.37444106 -0.04568979 16.578125 -0.046875 C17.65278959 -0.04753778 17.65278959 -0.04753778 18.74916458 -0.04821396 C40.58593564 -0.05527651 62.14979342 0.30469298 83.828125 3.203125 C85.15729345 3.37185076 86.4865605 3.5398013 87.81591797 3.70703125 C138.07949278 10.11041483 187.45413089 23.81225075 233.828125 44.203125 C234.85873047 44.65526367 235.88933594 45.10740234 236.95117188 45.57324219 C268.47968583 59.5136959 298.73824607 76.18242538 326.828125 96.203125 C327.54274902 96.70666504 328.25737305 97.21020508 328.99365234 97.72900391 C339.35197853 105.0290079 349.33407901 112.66974121 359.08398438 120.76318359 C361.53979237 122.79066898 364.03135368 124.77318196 366.515625 126.765625 C371.78366796 131.07656105 376.75704807 135.67314098 381.7265625 140.3203125 C384.28052016 142.70679753 386.88659329 145.02433432 389.515625 147.328125 C394.51302929 151.80770615 399.26280967 156.52865398 404.015625 161.265625 C405.15680786 162.39991943 405.15680786 162.39991943 406.32104492 163.55712891 C410.47031026 167.71771248 414.45064392 171.9658425 418.28442383 176.41870117 C420.32425875 178.77662517 422.45199313 181.04803185 424.578125 183.328125 C429.32687787 188.5359718 433.68045692 193.98012103 437.98828125 199.5546875 C439.85909299 201.97376268 441.76041048 204.36164974 443.69921875 206.7265625 C501.08105362 276.81410111 536.93056887 364.42038342 558.03125 522.375 C558.04177147 524.33876839 558.04177147 524.33876839 558.05250549 526.34220886 C558.07190589 530.54585255 558.07693979 534.74944106 558.078125 538.953125 C558.07856686 539.66956806 558.07900871 540.38601112 558.07946396 541.12416458 C558.08652651 562.96093564 557.72655702 584.52479342 554.828125 606.203125 C554.65939924 607.53229345 554.4914487 608.8615605 554.32421875 610.19091797 C547.92083517 660.45449278 534.21899925 709.82913089 513.828125 756.203125 C513.37598633 757.23373047 512.92384766 758.26433594 512.45800781 759.32617188 C498.5175541 790.85468583 481.84882462 821.11324607 461.828125 849.203125 C461.32458496 849.91774902 460.82104492 850.63237305 460.30224609 851.36865234 C453.0022421 861.72697853 445.36150879 871.70907901 437.26806641 881.45898438 C435.24058102 883.91479237 433.25806804 886.40635368 431.265625 888.890625 C426.95468895 894.15866796 422.35810902 899.13204807 417.7109375 904.1015625 C415.32445247 906.65552016 413.00691568 909.26159329 410.703125 911.890625 C406.22354385 916.88802929 401.50259602 921.63780967 396.765625 926.390625 C396.00942871 927.15141357 395.25323242 927.91220215 394.47412109 928.69604492 C390.31353752 932.84531026 386.0654075 936.82564392 381.61254883 940.65942383 C379.25462483 942.69925875 376.98321815 944.82699313 374.703125 946.953125 C369.4952782 951.70187787 364.05112897 956.05545692 358.4765625 960.36328125 C356.05748732 962.23409299 353.66960026 964.13541048 351.3046875 966.07421875 C277.13608105 1026.79729181 182.04193131 1065.21615125 35.65625 1080.40625 C33.69248161 1080.41677147 33.69248161 1080.41677147 31.68904114 1080.42750549 C27.48539745 1080.44690589 23.28180894 1080.45193979 19.078125 1080.453125 C18.36168194 1080.45356686 17.64523888 1080.45400871 16.90708542 1080.45446396 C-4.92968564 1080.46152651 -26.49354342 1080.10155702 -48.171875 1077.203125 C-49.50104345 1077.03439924 -50.8303105 1076.8664487 -52.15966797 1076.69921875 C-102.42324278 1070.29583517 -151.79788089 1056.59399925 -198.171875 1036.203125 C-199.20248047 1035.75098633 -200.23308594 1035.29884766 -201.29492188 1034.83300781 C-232.82343583 1020.8925541 -263.08199607 1004.22382462 -291.171875 984.203125 C-292.24381104 983.44781494 -292.24381104 983.44781494 -293.33740234 982.67724609 C-303.69572853 975.3772421 -313.67782901 967.73650879 -323.42773438 959.64306641 C-325.88354237 957.61558102 -328.37510368 955.63306804 -330.859375 953.640625 C-336.12741796 949.32968895 -341.10079807 944.73310902 -346.0703125 940.0859375 C-348.62427016 937.69945247 -351.23034329 935.38191568 -353.859375 933.078125 C-358.85677929 928.59854385 -363.60655967 923.87759602 -368.359375 919.140625 C-369.50055786 918.00633057 -369.50055786 918.00633057 -370.66479492 916.84912109 C-374.81406026 912.68853752 -378.79439392 908.4404075 -382.62817383 903.98754883 C-384.66800875 901.62962483 -386.79574313 899.35821815 -388.921875 897.078125 C-393.67062787 891.8702782 -398.02420692 886.42612897 -402.33203125 880.8515625 C-404.20284299 878.43248732 -406.10416048 876.04460026 -408.04296875 873.6796875 C-468.76604181 799.51108105 -507.18490125 704.41693131 -522.375 558.03125 C-522.38201431 556.72207108 -522.38902863 555.41289215 -522.39625549 554.06404114 C-522.41565589 549.86039745 -522.42068979 545.65680894 -522.421875 541.453125 C-522.42231686 540.73668194 -522.42275871 540.02023888 -522.42321396 539.28208542 C-522.43027651 517.44531436 -522.07030702 495.88145658 -519.171875 474.203125 C-519.00314924 472.87395655 -518.8351987 471.5446895 -518.66796875 470.21533203 C-512.26458517 419.95175722 -498.56274925 370.57711911 -478.171875 324.203125 C-477.71973633 323.17251953 -477.26759766 322.14191406 -476.80175781 321.08007812 C-462.8613041 289.55156417 -446.19257462 259.29300393 -426.171875 231.203125 C-425.41656494 230.13118896 -425.41656494 230.13118896 -424.64599609 229.03759766 C-417.3459921 218.67927147 -409.70525879 208.69717099 -401.61181641 198.94726562 C-399.58433102 196.49145763 -397.60181804 193.99989632 -395.609375 191.515625 C-391.29843895 186.24758204 -386.70185902 181.27420193 -382.0546875 176.3046875 C-379.66820247 173.75072984 -377.35066568 171.14465671 -375.046875 168.515625 C-370.56729385 163.51822071 -365.84634602 158.76844033 -361.109375 154.015625 C-360.35317871 153.25483643 -359.59698242 152.49404785 -358.81787109 151.71020508 C-354.65728752 147.56093974 -350.4091575 143.58060608 -345.95629883 139.74682617 C-343.59837483 137.70699125 -341.32696815 135.57925687 -339.046875 133.453125 C-333.8390282 128.70437213 -328.39487897 124.35079308 -322.8203125 120.04296875 C-320.40123732 118.17215701 -318.01335026 116.27083952 -315.6484375 114.33203125 C-241.47983105 53.60895819 -146.38568131 15.19009875 0 0 Z " fill="#36DBB3" transform="translate(586.171875,67.796875)"/>
<path d="M0 0 C-1.35762535 3.58703148 -2.95506287 6.87793818 -4.8359375 10.21875 C-5.39909668 11.22204346 -5.96225586 12.22533691 -6.54248047 13.2590332 C-7.14721191 14.32855225 -7.75194336 15.39807129 -8.375 16.5 C-9.31883545 18.17678833 -9.31883545 18.17678833 -10.28173828 19.88745117 C-15.59781123 29.31956095 -20.96129123 38.72431818 -26.34716797 48.11669922 C-29.54802334 53.70046613 -32.74316239 59.28750276 -35.9375 64.875 C-36.27924255 65.47269196 -36.62098511 66.07038391 -36.9730835 66.68618774 C-42.03132362 75.53445123 -47.0592484 84.39943746 -52.06616211 93.27685547 C-56.69056447 101.46914082 -61.35841694 109.63628616 -66.03076172 117.80126953 C-70.54331106 125.68804816 -75.03615295 133.58552059 -79.5 141.5 C-84.24481396 149.910759 -89.01917995 158.30431068 -93.8125 166.6875 C-94.31447906 167.56554794 -94.31447906 167.56554794 -94.82659912 168.46133423 C-98.23667004 174.42563159 -101.64930669 180.38845512 -105.06489563 186.34959412 C-106.75239031 189.29510888 -108.43892475 192.24117253 -110.125 195.1875 C-110.45728607 195.76805145 -110.78957214 196.34860291 -111.13192749 196.94674683 C-115.84615506 205.18693278 -120.50347668 213.45747023 -125.125 221.75 C-130.19625465 230.84933297 -135.40297153 239.85966632 -140.68017578 248.84082031 C-145.7267187 257.46111947 -150.56881189 266.18767016 -155.39428711 274.93310547 C-160.04830902 283.34514922 -164.85590001 291.65573975 -169.73046875 299.94140625 C-174.10262986 307.39864284 -178.32391475 314.93145138 -182.5 322.5 C-187.90837757 332.30119293 -193.45358354 342.00892324 -199.12158203 351.66210938 C-203.85028199 359.71851416 -208.4613562 367.83524395 -213 376 C-223.09080077 371.15231487 -232.88085481 365.88088698 -242.60522461 360.33642578 C-250.41004508 355.88859188 -258.25547278 351.51931972 -266.125 347.1875 C-266.73191681 346.85324005 -267.33883362 346.5189801 -267.96414185 346.17459106 C-271.06551883 344.46654257 -274.16734934 342.75932048 -277.26953125 341.05273438 C-283.39036224 337.68523773 -289.50788342 334.31173801 -295.625 330.9375 C-296.22513916 330.60649292 -296.82527832 330.27548584 -297.44360352 329.93444824 C-309.52604845 323.26953189 -321.58945859 316.57055875 -333.6484375 309.86328125 C-337.03559478 307.98021129 -340.42386997 306.09916827 -343.8125 304.21875 C-359.92565775 295.27622431 -376.01066122 286.28439486 -392.08398438 277.27050781 C-407.23699442 268.77389592 -422.41111039 260.31620305 -437.6015625 251.88671875 C-440.96439804 250.01976523 -444.3261401 248.15085885 -447.6875 246.28125 C-456.89641288 241.16002861 -466.10527814 236.03897729 -475.3359375 230.95703125 C-476.25532356 230.45083 -476.25532356 230.45083 -477.19328308 229.93440247 C-477.80617691 229.59696518 -478.41907074 229.25952789 -479.05053711 228.91186523 C-492.75375415 221.36735183 -506.40361087 213.73604989 -520 206 C-520 205.34 -520 204.68 -520 204 C-498.11508005 195.34715318 -476.21817167 186.72517769 -454.3125 178.125 C-436.84859672 171.26852582 -419.39143085 164.39561879 -401.94717407 157.48931885 C-385.09910689 150.81995426 -368.23373049 144.19496395 -351.36669922 137.57373047 C-335.21601854 131.23325421 -319.07307699 124.87381265 -302.94076538 118.48675537 C-287.40893434 112.33828218 -271.8621583 106.22823036 -256.3125 100.125 C-238.86441232 93.27654886 -221.42483631 86.407399 -204 79.5 C-185.37461038 72.11668831 -166.73132557 64.77969135 -148.08105469 57.45947266 C-132.87954758 51.49262259 -117.683928 45.51144268 -102.5 39.5 C-85.59362044 32.80712409 -68.67420774 26.14763621 -51.75 19.5 C-50.57993408 19.04036865 -49.40986816 18.5807373 -48.2043457 18.10717773 C-42.6193381 15.91344759 -37.03380571 13.72107464 -31.44726562 11.53125 C-27.05743243 9.80987761 -22.67122562 8.07962867 -18.28710938 6.34375 C-17.2204303 5.92275024 -16.15375122 5.50175049 -15.05474854 5.06799316 C-13.03263817 4.26984511 -11.01154791 3.46910629 -8.99163818 2.66540527 C-7.65241302 2.1378363 -7.65241302 2.1378363 -6.28613281 1.59960938 C-5.50328918 1.28938843 -4.72044556 0.97916748 -3.91387939 0.6595459 C-2 0 -2 0 0 0 Z " fill="#000000" transform="translate(995,470)"/>
<path d="M0 0 C3.35986426 0.67343155 6.00803564 1.94938419 9.0078125 3.58984375 C9.98451904 4.12134033 10.96122559 4.65283691 11.9675293 5.20043945 C13.00949463 5.77366943 14.05145996 6.34689941 15.125 6.9375 C16.75078979 7.82538208 16.75078979 7.82538208 18.40942383 8.73120117 C25.96089563 12.86139163 33.49142313 17.02902307 41.0078125 21.22265625 C46.72088793 24.40701284 52.45210226 27.5584342 58.18121338 30.71380615 C68.08047251 36.16621904 77.96114466 41.64878856 87.8125 47.1875 C95.87735599 51.72082492 103.97974674 56.17532627 112.125 60.5625 C120.85883054 65.26800737 129.5203571 70.08608448 138.1472168 74.98461914 C154.08845938 84.0330097 170.11428045 92.92811618 186.25 101.625 C194.89974999 106.28751254 203.47511748 111.06608906 212.01806641 115.92114258 C219.68945467 120.27491121 227.39892359 124.55688158 235.125 128.8125 C235.73131256 129.14654846 236.33762512 129.48059692 236.96231079 129.82476807 C241.30726331 132.21822836 245.65348086 134.60938617 250 137 C254.959201 139.72759284 259.91775108 142.45636075 264.875 145.1875 C265.47460541 145.5177417 266.07421082 145.8479834 266.69198608 146.18823242 C276.0904203 151.36686083 285.4495647 156.6123756 294.77099609 161.9284668 C299.12918429 164.40840447 303.48367314 166.81996084 308 169 C308 169.66 308 170.32 308 171 C307.23340561 171.29510971 306.46681122 171.59021942 305.67698669 171.89427185 C285.8116792 179.54778874 266.00036382 187.32886627 246.22163773 195.20314789 C242.50359735 196.6829543 238.78487179 198.16103669 235.06616211 199.63916016 C234.31837022 199.93639984 233.57057833 200.23363953 232.80012608 200.53988647 C231.29342858 201.13878135 229.78672903 201.73767103 228.28002739 202.33655548 C226.04389762 203.22544118 223.80783654 204.11449947 221.5717926 205.00360107 C209.07350575 209.97290063 196.56953608 214.92776171 184.0625 219.875 C180.25128722 221.38277493 176.44009824 222.89061001 172.62890625 224.3984375 C171.69023209 224.76978317 170.75155792 225.14112885 169.78443909 225.52372742 C158.021108 230.17781133 146.26069087 234.8392495 134.5 239.5 C117.5637683 246.21153934 100.62652568 252.92051526 83.6875 259.625 C82.70470062 260.01399475 81.72190125 260.4029895 80.70932007 260.80377197 C72.82357199 263.92492904 64.93772833 267.04584459 57.05187988 270.16674805 C50.13870781 272.90271723 43.22557499 275.63878553 36.3125 278.375 C35.33010345 278.76383362 34.34770691 279.15266724 33.33554077 279.55328369 C17.38889827 285.86516691 1.44410859 292.18171907 -14.5 298.5 C-31.436267 305.21145033 -48.37347427 311.92051525 -65.3125 318.625 C-66.29529938 319.01399475 -67.27809875 319.4029895 -68.29067993 319.80377197 C-76.17642801 322.92492904 -84.06227167 326.04584459 -91.94812012 329.16674805 C-106.96580597 335.11017391 -121.9832013 341.05433294 -137 347 C-138.12899719 347.44700256 -139.25799438 347.89400513 -140.42120361 348.35455322 C-147.54260804 351.17420122 -154.66381967 353.99433547 -161.78482056 356.81500244 C-164.05249538 357.71318916 -166.32021418 358.61126486 -168.58798218 359.50921631 C-171.77232789 360.77013554 -174.95647984 362.03154318 -178.140625 363.29296875 C-179.64530083 363.8884552 -179.64530083 363.8884552 -181.18037415 364.49597168 C-186.09878589 366.44449947 -191.01188213 368.40494473 -195.91601562 370.38916016 C-196.84589294 370.76454422 -197.77577026 371.13992828 -198.73382568 371.52668762 C-200.4816686 372.23322041 -202.22836021 372.94261035 -203.97369385 373.65531921 C-209.77796006 376 -209.77796006 376 -212 376 C-210.67250297 372.5050893 -209.13699967 369.28447631 -207.3046875 366.02734375 C-206.76199219 365.05990234 -206.21929687 364.09246094 -205.66015625 363.09570312 C-205.07105469 362.05349609 -204.48195312 361.01128906 -203.875 359.9375 C-203.25753906 358.83986328 -202.64007813 357.74222656 -202.00390625 356.61132812 C-197.03659988 347.79659908 -192.01735968 339.01167405 -186.98736572 330.23260498 C-181.60356151 320.83581412 -176.28912914 311.40184651 -171.01000977 301.94580078 C-166.87029706 294.53677348 -162.67934481 287.15874047 -158.45898438 279.79541016 C-154.86520875 273.52291869 -151.3014296 267.23405354 -147.75 260.9375 C-142.54904384 251.71755172 -137.30119295 242.52494288 -132.03973389 233.33944702 C-127.26716035 225.00446281 -122.54965279 216.64038555 -117.875 208.25 C-113.3040964 200.04596361 -108.63405222 191.90877221 -103.875 183.8125 C-98.88155072 175.31408667 -94.07673508 166.73460513 -89.38916016 158.06420898 C-84.62680341 149.26858851 -79.66847195 140.59206316 -74.68066406 131.92285156 C-71.4875778 126.36973872 -68.3055357 120.81030694 -65.125 115.25 C-64.61607208 114.36069794 -64.61607208 114.36069794 -64.09686279 113.45343018 C-58.72077811 104.05620379 -53.42270313 94.617453 -48.15332031 85.15991211 C-44.14721668 77.99190511 -40.03608102 70.89148194 -35.875 63.8125 C-30.88973874 55.32802196 -26.08929453 46.76434052 -21.41333008 38.10595703 C-16.97067745 29.89393895 -12.34912939 21.79069639 -7.69140625 13.69921875 C-5.08005269 9.1589277 -2.52993826 4.58607183 0 0 Z " fill="#FAFEFD" transform="translate(425,371)"/>
<path d="M0 0 C0.66 0.33 1.32 0.66 2 1 C-12.52 15.52 -27.04 30.04 -42 45 C-42.66 44.67 -43.32 44.34 -44 44 C-43.57589844 43.5875 -43.15179688 43.175 -42.71484375 42.75 C-42.12832031 42.1725 -41.54179687 41.595 -40.9375 41 C-40.36902344 40.443125 -39.80054688 39.88625 -39.21484375 39.3125 C-37.35277286 37.36832722 -35.59801659 35.38745962 -33.84375 33.34765625 C-29.6262807 28.4986612 -25.11590685 23.96920674 -20.5625 19.4375 C-19.75490234 18.62603516 -18.94730469 17.81457031 -18.11523438 16.97851562 C-13.77785678 12.64812817 -9.37167477 8.46904727 -4.70678711 4.49243164 C-3.06476491 3.05663108 -1.52342289 1.56015998 0 0 Z " fill="#78E7CC" transform="translate(245,203)"/>
</svg>
